<svg xmlns="http://www.w3.org/2000/svg" viewBox="0 0 111.6 111.6"><defs><style>.cls-1,.cls-2{fill:none;stroke:#231f20;stroke-miterlimit:10;}.cls-1{stroke-width:4px;}.cls-2{stroke-width:3px;}</style></defs><g id="Layer_2" data-name="Layer 2"><g id="Checklist"><circle class="cls-1" cx="55.8" cy="55.8" r="53.8"/><path class="cls-2" d="M79.84,79c-.18-6.21-.89-13.67-13.93-17.15-7.35-1.54-7.5-5.76-7.5-6.39V51.05c0-.82,0-4.85,7.33-6.58C78.68,40.65,79.2,33.17,79.22,27l-47.49,0c0,6.21.5,13.7,13.42,17.56,7.17,1.72,7.3,6.22,7.31,6.59h0c0,2.9.09,3.44,0,4.42a10.36,10.36,0,0,1-.31,1.77c-.77,2.5-4.62,3.37-7.46,4.29-2.23.71-8.61,2.77-11.83,6.62-1.4,1.68-3,4.61-2.84,9.91"/><rect class="cls-2" x="27.56" y="22.36" width="56.49" height="4.59" rx="2"/><rect class="cls-2" x="27.56" y="79.04" width="56.49" height="4.59" rx="2"/><rect class="cls-2" x="22.79" y="83.63" width="66.02" height="5.61" rx="2"/></g></g></svg>