<svg id="Layer_1" data-name="Layer 1" xmlns="http://www.w3.org/2000/svg" viewBox="0 0 74.81 90.99"><defs><style>.cls-1{fill:none;stroke:#000;stroke-miterlimit:10;stroke-width:3px;}</style></defs><path d="M890.13,599.68a34.41,34.41,0,1,1-34.41,34.41,34.45,34.45,0,0,1,34.41-34.41m0-3a37.41,37.41,0,1,0,37.4,37.41,37.41,37.41,0,0,0-37.4-37.41Z" transform="translate(-852.72 -580.5)"/><rect class="cls-1" x="33.56" y="8.84" width="7.34" height="7.34"/><rect class="cls-1" x="24.82" y="1.5" width="24.82" height="7.34" rx="2.81"/><path class="cls-1" d="M915,601.7h4.14a3.67,3.67,0,0,1,3.67,3.67v0a3.67,3.67,0,0,1-3.67,3.67H915a.86.86,0,0,1-.86-.86v-5.62a.86.86,0,0,1,.86-.86Z" transform="translate(-1011.76 246.28) rotate(-45)"/><path class="cls-1" d="M858.08,601.7h4.09a3.67,3.67,0,0,1,3.67,3.67v0a3.67,3.67,0,0,1-3.67,3.67h-4.09a.86.86,0,0,1-.86-.86v-5.62A.86.86,0,0,1,858.08,601.7Z" transform="translate(189.94 1062.13) rotate(-135)"/><g id="Dumbell"><path d="M896.22,630.49V638H884v-7.54h12.18m3-3H881V641h18.18V627.49Z" transform="translate(-852.72 -580.5)"/><rect class="cls-1" x="46.49" y="33.31" width="8.12" height="40.55" rx="3.11"/><rect class="cls-1" x="20.3" y="33.23" width="8.12" height="40.55" rx="3.11"/><rect class="cls-1" x="54.77" y="39.6" width="8.12" height="28.33" rx="3.11"/><rect class="cls-1" x="12.06" y="39.46" width="8.12" height="28.33" rx="3.11"/></g></svg>