<svg xmlns="http://www.w3.org/2000/svg" viewBox="0 0 214 262"><defs><style>.cls-1{fill:none;stroke:#000;stroke-miterlimit:10;stroke-width:12px;}</style></defs><g id="Stopwatch"><path d="M568,314a95,95,0,1,1-95,95,95.11,95.11,0,0,1,95-95m0-12A107,107,0,1,0,675,409,107,107,0,0,0,568,302Z" transform="translate(-461 -254)"/><rect class="cls-1" x="96" y="27" width="21" height="21"/><rect class="cls-1" x="71" y="6" width="71" height="21" rx="10.5"/><path class="cls-1" d="M640,315h10.5A10.5,10.5,0,0,1,661,325.5v0A10.5,10.5,0,0,1,650.5,336H640a0,0,0,0,1,0,0V315a0,0,0,0,1,0,0Z" transform="translate(-500.64 301.31) rotate(-45)"/><path class="cls-1" d="M474.41,315.07h10.5a10.5,10.5,0,0,1,10.5,10.5v0a10.5,10.5,0,0,1-10.5,10.5h-10.5a0,0,0,0,1,0,0v-21A0,0,0,0,1,474.41,315.07Z" transform="translate(136.58 644.67) rotate(-135)"/></g><g id="Dumbbel"><g id="Dumbell"><path d="M582,402.14v14.72H554V402.14h28m12-12H542v38.72h52V390.14Z" transform="translate(-461 -254)"/><rect class="cls-1" x="133" y="97" width="23.22" height="116" rx="11.61"/><rect class="cls-1" x="58.06" y="96.78" width="23.22" height="116" rx="11.61"/><rect class="cls-1" x="156.69" y="115" width="23.22" height="81.04" rx="11.61"/><rect class="cls-1" x="34.5" y="114.59" width="23.22" height="81.04" rx="11.61"/></g></g></svg>