<?xml version="1.0" encoding="UTF-8"?>
<svg id="Layer_2" data-name="Layer 2" xmlns="http://www.w3.org/2000/svg" viewBox="0 0 5 4.76">
  <defs>
    <style>
      .cls-1 {
        fill: #231f20;
      }
    </style>
  </defs>
  <g id="Layer_1-2" data-name="Layer 1">
    <path class="cls-1" d="M2.5,1.13l.32,.66,.12,.24,.26,.04,.73,.11-.53,.51-.19,.18,.04,.26,.12,.72-.65-.34-.23-.12-.23,.12-.65,.34,.12-.72,.04-.26-.19-.18-.53-.51,.73-.11,.26-.04,.12-.24,.32-.66m0-1.13l-.77,1.57-1.73,.25,1.25,1.22-.3,1.72,1.55-.81,1.55,.81-.3-1.72,1.25-1.22-1.73-.25-.77-1.57h0Z"/>
  </g>
</svg>