<?xml version="1.0" encoding="UTF-8"?>
<svg id="Layer_2" data-name="Layer 2" xmlns="http://www.w3.org/2000/svg" viewBox="0 0 5 4.76">
  <defs>
    <style>
      .cls-1 {
        fill: #231f20;
      }
    </style>
  </defs>
  <g id="Layer_1-2" data-name="Layer 1">
    <g>
      <polygon class="cls-1" points="2.5 3.38 1.62 3.84 1.79 2.86 1.07 2.17 2.06 2.02 2.5 1.13 2.94 2.02 3.93 2.17 3.21 2.86 3.38 3.84 2.5 3.38"/>
      <path class="cls-1" d="M2.5,2.26l.11,.22,.24,.04-.18,.17,.04,.24-.22-.11-.22,.11,.04-.24-.18-.17,.24-.04,.11-.22M2.5,0l-.77,1.57-1.73,.25,1.25,1.22-.3,1.72,1.55-.81,1.55,.81-.3-1.72,1.25-1.22-1.73-.25-.77-1.57h0Z"/>
    </g>
  </g>
</svg>